<?xml version="1.0" encoding="UTF-8" standalone="no"?>
<svg width="248px" height="133px" viewBox="0 0 248 133" version="1.1" xmlns="http://www.w3.org/2000/svg" xmlns:xlink="http://www.w3.org/1999/xlink">
    <!-- Generator: Sketch 49.3 (51167) - http://www.bohemiancoding.com/sketch -->
    <title>logo yes 3</title>
    <desc>Created with Sketch.</desc>
    <defs>
        <polygon id="path-1" points="0 0 248 0 248 133 0 133"></polygon>
        <polygon id="path-2" points="22.8141533 31.4249647 0.0123837347 31.4249647 0.0123837347 0.0566242288 22.8141533 0.0566242288 22.8141533 31.4249647"></polygon>
        <polygon id="path-4" points="0.209622526 0.0118473134 43.456325 0.0118473134 43.456325 46.139066 0.209622526 46.139066 0.209622526 0.0118473134"></polygon>
    </defs>
    <g id="Home" stroke="none" stroke-width="1" fill="none" fill-rule="evenodd">
        <g id="Style-Guide---Homepage" transform="translate(-735.000000, -4358.000000)">
            <g id="logo-yes-3" transform="translate(735.000000, 4358.000000)">
                <g id="Rectangle-2-Copy-12">
                    <use fill="#FFFFFF" fill-rule="evenodd" xlink:href="#path-1"></use>
                    <path stroke="#CBD6E2" stroke-width="0.5" d="M0.25,0.25 L0.25,132.75 L247.75,132.75 L247.75,0.25 L0.25,0.25 Z"></path>
                </g>
                <g id="Marketing/Logos/HubSpot-Primary-Copy-11" transform="translate(38.000000, 43.000000)">
                    <polygon id="Fill-1" fill="#000000" points="17.4313729 7.47727273 17.4313729 20.604418 5.61230821 20.604418 5.61230821 7.47727273 0 7.47727273 0 38.8106061 5.61230821 38.8106061 5.61230821 26.1118208 17.4313729 26.1118208 17.4313729 38.8106061 23.0431034 38.8106061 23.0431034 7.47727273"></polygon>
                    <path d="M41.1252535,28.8917876 C41.1252535,31.5326557 39.0426723,33.6816033 36.4860685,33.6816033 C33.9283101,33.6816033 31.8468836,31.5326557 31.8468836,28.8917876 L31.8468836,15.3106061 L26.5344828,15.3106061 L26.5344828,28.8917876 C26.5344828,34.55752 30.9993013,39.1666667 36.4860685,39.1666667 C41.971681,39.1666667 46.4353448,34.55752 46.4353448,28.8917876 L46.4353448,15.3106061 L41.1252535,15.3106061 L41.1252535,28.8917876 Z" id="Fill-2" fill="#000000"></path>
                    <path d="M80.781769,16.6420562 C80.781769,13.8910896 82.5779619,13.0192629 84.5449994,13.0192629 C86.127927,13.0192629 88.2233886,14.2404093 89.5901455,15.724871 L93.0959467,11.5359794 C91.3444989,9.13609972 87.7951148,7.47727273 84.8866886,7.47727273 C79.0704173,7.47727273 74.8794943,10.9251116 74.8794943,16.6420562 C74.8794943,27.2459429 87.6672719,23.8846975 87.6672719,29.821366 C87.6672719,31.6522021 85.9140807,33.2680268 83.9046226,33.2680268 C80.7393484,33.2680268 79.7119563,31.6969715 78.2586148,30.0387336 L74.3663793,34.1398535 C76.847694,37.2383727 79.9263837,38.8106061 83.6041918,38.8106061 C89.1211945,38.8106061 93.5689655,35.3191758 93.5689655,29.8631901 C93.5689655,18.0811593 80.781769,21.747544 80.781769,16.6420562" id="Fill-4" fill="#000000"></path>
                    <path d="M160.092299,34.1031387 C156.888467,34.1031387 155.979056,32.7072441 155.979056,30.5683349 L155.979056,21.0983102 L160.959329,21.0983102 L160.959329,16.2986621 L155.979056,16.2986621 L155.979056,9.96969697 L150.478448,12.4572833 L150.478448,31.7466029 C150.478448,36.6784874 153.855922,39.1666667 158.4895,39.1666667 C159.182888,39.1666667 160.136445,39.1215995 160.65678,38.9923281 L162,34.0171554 C161.393726,34.0592576 160.700927,34.1031387 160.092299,34.1031387" id="Fill-6" fill="#000000"></path>
                    <path d="M61.497354,33.6656838 C58.1521944,33.6656838 55.4400749,30.8897248 55.4400749,27.4658249 C55.4400749,24.041925 58.1521944,21.265966 61.497354,21.265966 C64.8425137,21.265966 67.5546332,24.041925 67.5546332,27.4658249 C67.5546332,30.8897248 64.8425137,33.6656838 61.497354,33.6656838 M61.5309156,15.6287615 C58.8899697,15.6287615 57.0475569,16.4135163 55.2670594,18.2015727 L55.2670594,7.83333333 L49.9267241,7.83333333 L49.9267241,27.0488684 C49.9267241,34.2407757 55.0066681,39.1666667 60.715023,39.1666667 C67.0604685,39.1666667 72.6206897,34.1531201 72.6206897,27.3983064 C72.6206897,20.7287792 67.4932966,15.6287615 61.5309156,15.6287615" id="Fill-8" fill="#000000"></path>
                    <g id="Group-12" transform="translate(97.060345, 15.310606)">
                        <mask id="mask-3" fill="white">
                            <use xlink:href="#path-2"></use>
                        </mask>
                        <g id="Clip-11"></g>
                        <path d="M11.6385595,17.977155 C8.27692781,17.977155 5.55192478,15.1981209 5.55192478,11.7704281 C5.55192478,8.3427352 8.27692781,5.56370106 11.6385595,5.56370106 C14.9990283,5.56370106 17.7240313,8.3427352 17.7240313,11.7704281 C17.7240313,15.1981209 14.9990283,17.977155 11.6385595,17.977155 M22.8141533,11.8380214 C22.8141533,5.07572472 17.2275192,0.0566242288 10.8519307,0.0566242288 C5.11645918,0.0566242288 0.0123837347,4.98797199 0.0123837347,12.1878465 L0.0123837347,31.4252612 L5.37808738,31.4252612 L5.37808738,21.0449431 C7.16704286,22.8355732 9.01820771,23.6211973 11.671699,23.6211973 C17.6624034,23.6211973 22.8141533,18.514937 22.8141533,11.8380214" id="Fill-10" fill="#000000" mask="url(#mask-3)"></path>
                    </g>
                    <g id="Group-15" transform="translate(103.693966, 0.000000)">
                        <mask id="mask-5" fill="white">
                            <use xlink:href="#path-4"></use>
                        </mask>
                        <g id="Clip-14"></g>
                        <path d="M31.6263224,33.2515584 C28.2764186,33.2515584 25.5608781,30.4875802 25.5608781,27.0785158 C25.5608781,23.668859 28.2764186,20.9048807 31.6263224,20.9048807 C34.9762262,20.9048807 37.6917667,23.668859 37.6917667,27.0785158 C37.6917667,30.4875802 34.9762262,33.2515584 31.6263224,33.2515584 M33.4421146,9.70146879 C34.8505176,9.02439482 35.8369816,7.57428366 35.8369816,5.89137279 C35.8369816,3.44194073 33.9699747,1.54163166 31.6880128,1.54163166 C29.2820882,1.54163166 27.4150813,3.44194073 27.4150813,5.76460653 C27.4150813,7.57428366 28.4015453,9.02498719 29.8099483,9.70206115 L29.8099483,15.1932909 C27.7130575,15.5232386 25.7971639,16.403494 24.2170755,17.6989977 L9.40265553,5.96956506 C9.50042895,5.5874892 9.56910315,5.19415839 9.56968513,4.78068715 C9.57201307,2.15058357 7.48036014,0.0151053246 4.8951842,0.0115511306 C2.31117223,0.00858930224 0.212535482,2.13814389 0.209625558,4.76883984 C0.206715635,7.39953579 2.29836857,9.53501403 4.88354451,9.53797586 C5.72567633,9.53916059 6.5055358,9.2956983 7.18878581,8.89999803 L21.7611002,20.4386889 C20.5220548,22.3425522 19.7957379,24.6231601 19.7957379,27.0785158 C19.7957379,29.6487904 20.5936389,32.0265462 21.9415154,33.9819453 L17.5102841,38.4928099 C17.1599293,38.3855917 16.7967709,38.3109536 16.411497,38.3109536 C14.2878349,38.3109536 12.5657423,40.0631713 12.5657423,42.2247136 C12.5657423,44.3868483 14.2878349,46.139066 16.411497,46.139066 C18.5357411,46.139066 20.2572518,44.3868483 20.2572518,42.2247136 C20.2572518,41.8337523 20.1839217,41.4635237 20.0785825,41.1069196 L24.4620911,36.6452214 C26.4518967,38.1907034 28.9299874,39.1195328 31.6263224,39.1195328 C38.1602644,39.1195328 43.456325,33.7284128 43.456325,27.0785158 C43.456325,21.0583034 39.1112274,16.0848013 33.4421146,15.1932909 L33.4421146,9.70146879 Z" id="Fill-13" fill="#000000" mask="url(#mask-5)"></path>
                    </g>
                </g>
            </g>
        </g>
    </g>
</svg>